<svg version="1.1" id="Layer_1" xmlns="http://www.w3.org/2000/svg" xmlns:xlink="http://www.w3.org/1999/xlink" x="0px" y="0px"
	 width="100%" viewBox="0 0 512 512" enable-background="new 0 0 512 512" xml:space="preserve">

<path fill="#000000" opacity="1.000000" stroke="none" 
	d="
M130.454102,513.000000 
	C119.877586,505.977051 120.362633,497.141022 128.966797,488.537933 
	C204.591324,412.923065 280.204865,337.297211 355.825714,261.678650 
	C357.235626,260.268768 358.694763,258.908142 361.850372,255.868118 
	C359.958405,254.884415 357.977814,254.376328 356.732086,253.132370 
	C280.823059,177.330948 204.971893,101.471573 129.126312,25.606607 
	C124.836830,21.316023 120.759888,16.548954 123.187378,10.075741 
	C124.379669,6.896336 127.549644,4.458571 129.912308,1.342588 
	C133.030594,1.000000 136.061188,1.000000 139.545898,0.999999 
	C144.255554,4.755576 148.726929,8.295117 152.734772,12.298674 
	C230.171799,89.652870 307.550049,167.065918 384.960052,244.447159 
	C389.464355,248.949814 392.906158,253.951904 390.854523,260.553711 
	C389.938385,263.501617 387.960327,266.409668 385.750549,268.623383 
	C306.070770,348.446167 226.313065,428.191162 146.512329,507.893036 
	C144.718536,509.684601 142.303024,510.853668 140.088760,512.656555 
	C136.969406,513.000000 133.938812,513.000000 130.454102,513.000000 
z"/>
</svg>