{
	"asset":{
		"generator":"Khronos glTF Blender I/O v3.5.30",
		"version":"2.0"
	},
	"extensionsUsed":[
		"KHR_materials_specular",
		"KHR_materials_ior"
	],
	"scene":0,
	"scenes":[
		{
			"name":"Scene",
			"nodes":[
				0,
				1
			]
		}
	],
	"nodes":[
		{
			"mesh":0,
			"name":"eye",
			"rotation":[
				0.7071068286895752,
				0,
				0,
				0.7071068286895752
			],
			"scale":[
				0.9546409845352173,
				0.9546409845352173,
				0.9546409845352173
			]
		},
		{
			"mesh":1,
			"name":"clipper",
			"rotation":[
				0.27059805393218994,
				0.27059805393218994,
				-0.6532815098762512,
				0.6532815098762512
			],
			"scale":[
				1.559539794921875,
				1.5595396757125854,
				1.559539794921875
			]
		}
	],
	"materials":[
		{
			"doubleSided":true,
			"extensions":{
				"KHR_materials_specular":{
					"specularColorFactor":[
						0,
						0,
						0
					]
				},
				"KHR_materials_ior":{
					"ior":1.4500000476837158
				}
			},
			"name":"eye",
			"pbrMetallicRoughness":{
				"baseColorFactor":[
					0.06648591160774231,
					0.06648591160774231,
					0.06648591160774231,
					1
				],
				"metallicFactor":0,
				"roughnessFactor":0.5
			}
		}
	],
	"meshes":[
		{
			"name":"Sphere",
			"primitives":[
				{
					"attributes":{
						"POSITION":0,
						"TEXCOORD_0":1,
						"NORMAL":2
					},
					"indices":3,
					"material":0
				}
			]
		},
		{
			"extras":{
				"targetNames":[
					"Key 1"
				]
			},
			"name":"Sphere.001",
			"primitives":[
				{
					"attributes":{
						"POSITION":4,
						"TEXCOORD_0":5,
						"NORMAL":6
					},
					"indices":7,
					"targets":[
						{
							"POSITION":8,
							"NORMAL":9
						}
					]
				}
			],
			"weights":[
				0
			]
		}
	],
	"accessors":[
		{
			"bufferView":0,
			"componentType":5126,
			"count":2208,
			"max":[
				0.9999997019767761,
				0.9957512617111206,
				0.9999993443489075
			],
			"min":[
				-0.9999990463256836,
				-0.5555702447891235,
				-1
			],
			"type":"VEC3"
		},
		{
			"bufferView":1,
			"componentType":5126,
			"count":2208,
			"type":"VEC2"
		},
		{
			"bufferView":2,
			"componentType":5126,
			"count":2208,
			"type":"VEC3"
		},
		{
			"bufferView":3,
			"componentType":5123,
			"count":3360,
			"type":"SCALAR"
		},
		{
			"bufferView":4,
			"componentType":5126,
			"count":1522,
			"max":[
				0.9999997019767761,
				1,
				0.9999993443489075
			],
			"min":[
				-0.9999990463256836,
				-1,
				-1
			],
			"type":"VEC3"
		},
		{
			"bufferView":5,
			"componentType":5126,
			"count":1522,
			"type":"VEC2"
		},
		{
			"bufferView":6,
			"componentType":5126,
			"count":1522,
			"type":"VEC3"
		},
		{
			"bufferView":7,
			"componentType":5123,
			"count":2250,
			"type":"SCALAR"
		},
		{
			"bufferView":8,
			"componentType":5126,
			"count":1522,
			"max":[
				0.29289257526397705,
				5.960464477539063e-08,
				0.707106351852417
			],
			"min":[
				-0.7071062326431274,
				-3.127220438159384e-08,
				-0.2928932309150696
			],
			"type":"VEC3"
		},
		{
			"bufferView":9,
			"componentType":5126,
			"count":1522,
			"type":"VEC3"
		}
	],
	"bufferViews":[
		{
			"buffer":0,
			"byteLength":26496,
			"byteOffset":0,
			"target":34962
		},
		{
			"buffer":0,
			"byteLength":17664,
			"byteOffset":26496,
			"target":34962
		},
		{
			"buffer":0,
			"byteLength":26496,
			"byteOffset":44160,
			"target":34962
		},
		{
			"buffer":0,
			"byteLength":6720,
			"byteOffset":70656,
			"target":34963
		},
		{
			"buffer":0,
			"byteLength":18264,
			"byteOffset":77376,
			"target":34962
		},
		{
			"buffer":0,
			"byteLength":12176,
			"byteOffset":95640,
			"target":34962
		},
		{
			"buffer":0,
			"byteLength":18264,
			"byteOffset":107816,
			"target":34962
		},
		{
			"buffer":0,
			"byteLength":4500,
			"byteOffset":126080,
			"target":34963
		},
		{
			"buffer":0,
			"byteLength":18264,
			"byteOffset":130580,
			"target":34962
		},
		{
			"buffer":0,
			"byteLength":18264,
			"byteOffset":148844,
			"target":34962
		}
	],
	"buffers":[
		{
			"byteLength":167108,
			"uri":"data:application/octet-stream;base64,"
		}
	]
}
