<svg id="visual" viewBox="0 0 900 600" width="900" height="600" xmlns="http://www.w3.org/2000/svg" xmlns:xlink="http://www.w3.org/1999/xlink" version="1.1"><path d="M0 408L10 405.8C20 403.7 40 399.3 60 398.7C80 398 100 401 120 401.5C140 402 160 400 180 399.3C200 398.7 220 399.3 240 397.5C260 395.7 280 391.3 300 389.2C320 387 340 387 360 390.7C380 394.3 400 401.7 420 406.2C440 410.7 460 412.3 480 409.7C500 407 520 400 540 395.8C560 391.7 580 390.3 600 393.5C620 396.7 640 404.3 660 408.3C680 412.3 700 412.7 720 409.5C740 406.3 760 399.7 780 396.2C800 392.7 820 392.3 840 394.7C860 397 880 402 890 404.5L900 407L900 601L890 601C880 601 860 601 840 601C820 601 800 601 780 601C760 601 740 601 720 601C700 601 680 601 660 601C640 601 620 601 600 601C580 601 560 601 540 601C520 601 500 601 480 601C460 601 440 601 420 601C400 601 380 601 360 601C340 601 320 601 300 601C280 601 260 601 240 601C220 601 200 601 180 601C160 601 140 601 120 601C100 601 80 601 60 601C40 601 20 601 10 601L0 601Z" fill="#3547d0"></path><path d="M0 438L10 436.5C20 435 40 432 60 435.5C80 439 100 449 120 449C140 449 160 439 180 439.2C200 439.3 220 449.7 240 452C260 454.3 280 448.7 300 448.2C320 447.7 340 452.3 360 450.5C380 448.7 400 440.3 420 437C440 433.7 460 435.3 480 439.7C500 444 520 451 540 452.3C560 453.7 580 449.3 600 445.3C620 441.3 640 437.7 660 440C680 442.3 700 450.7 720 452.8C740 455 760 451 780 448.7C800 446.3 820 445.7 840 444.8C860 444 880 443 890 442.5L900 442L900 601L890 601C880 601 860 601 840 601C820 601 800 601 780 601C760 601 740 601 720 601C700 601 680 601 660 601C640 601 620 601 600 601C580 601 560 601 540 601C520 601 500 601 480 601C460 601 440 601 420 601C400 601 380 601 360 601C340 601 320 601 300 601C280 601 260 601 240 601C220 601 200 601 180 601C160 601 140 601 120 601C100 601 80 601 60 601C40 601 20 601 10 601L0 601Z" fill="#6e2ea5"></path><path d="M0 483L10 483.3C20 483.7 40 484.3 60 487.7C80 491 100 497 120 498.3C140 499.7 160 496.3 180 493.2C200 490 220 487 240 488.5C260 490 280 496 300 494.8C320 493.7 340 485.3 360 485.3C380 485.3 400 493.7 420 495.5C440 497.3 460 492.7 480 492.7C500 492.7 520 497.3 540 497.2C560 497 580 492 600 489.3C620 486.7 640 486.3 660 485.2C680 484 700 482 720 481.7C740 481.3 760 482.7 780 483.7C800 484.7 820 485.3 840 484.2C860 483 880 480 890 478.5L900 477L900 601L890 601C880 601 860 601 840 601C820 601 800 601 780 601C760 601 740 601 720 601C700 601 680 601 660 601C640 601 620 601 600 601C580 601 560 601 540 601C520 601 500 601 480 601C460 601 440 601 420 601C400 601 380 601 360 601C340 601 320 601 300 601C280 601 260 601 240 601C220 601 200 601 180 601C160 601 140 601 120 601C100 601 80 601 60 601C40 601 20 601 10 601L0 601Z" fill="#7c187c"></path><path d="M0 546L10 545.7C20 545.3 40 544.7 60 543.8C80 543 100 542 120 540.8C140 539.7 160 538.3 180 537.2C200 536 220 535 240 533.7C260 532.3 280 530.7 300 530.3C320 530 340 531 360 533.7C380 536.3 400 540.7 420 541C440 541.3 460 537.7 480 536.8C500 536 520 538 540 539.2C560 540.3 580 540.7 600 541.3C620 542 640 543 660 543.8C680 544.7 700 545.3 720 543C740 540.7 760 535.3 780 535.5C800 535.7 820 541.3 840 543.7C860 546 880 545 890 544.5L900 544L900 601L890 601C880 601 860 601 840 601C820 601 800 601 780 601C760 601 740 601 720 601C700 601 680 601 660 601C640 601 620 601 600 601C580 601 560 601 540 601C520 601 500 601 480 601C460 601 440 601 420 601C400 601 380 601 360 601C340 601 320 601 300 601C280 601 260 601 240 601C220 601 200 601 180 601C160 601 140 601 120 601C100 601 80 601 60 601C40 601 20 601 10 601L0 601Z" fill="#790d58"></path></svg>